<?xml version="1.0" encoding="utf-8" ?><svg xmlns="http://www.w3.org/2000/svg" xmlns:xlink="http://www.w3.org/1999/xlink" width="1024" height="1024" viewBox="0 0 1024 1024"><path d="M362.891 602.705C372.787 601.468 385.922 604.178 395.107 607.963C413.164 615.327 427.807 629.188 436.153 646.812C439.91 654.688 442.131 662.472 446.613 670.237C473.175 716.696 556.274 712.011 572.117 659.115C594.434 584.602 696.133 584.813 720.166 657.98C738.708 713.528 823.939 717.333 850.353 666.476C854.728 658.052 866.354 658.43 866.447 673.432L866.411 721.485C866.408 754.124 868.735 777.6 843.422 803.654C816.763 831.094 785.71 826.712 750.625 826.631L384.504 826.623L278.528 826.618C262.042 826.669 233.857 827.705 218.159 826.127C205.82 824.806 193.951 820.659 183.475 814.008C166.026 802.59 153.823 784.712 149.549 764.301C147.277 753.855 147.578 742.245 147.547 731.516C147.507 719.533 147.538 707.551 147.639 695.569C147.657 687.987 144.536 662.313 154.54 660.938C162.511 659.843 166.562 670.97 170.702 676.542C173.517 680.33 176.798 683.749 180.467 686.717C213.283 713.363 272.718 705.547 290.871 664.844C293.372 659.278 294.936 653.314 297.347 647.713C309.171 620.241 334.019 605.467 362.891 602.705Z"/><path d="M167.227 309.238C167.651 309.219 168.075 309.207 168.5 309.201C215.019 308.522 262.737 309.243 309.375 309.272L580.805 309.21L756.206 309.07L814.552 309.031C826.188 309.029 837.928 309.132 849.538 309.288C868.899 309.549 865.774 322.227 865.784 336.864L865.943 366.799C865.981 379.546 862.528 384.131 849.625 384.036L379.788 383.991L234.641 383.993L187.061 383.997C178.659 383.997 170.151 384.077 161.762 383.935C158.434 383.769 155.166 383.786 152.53 381.278C144.511 373.653 148.5 355.368 147.609 344.748C146.973 337.161 147.53 327.051 147.961 319.828C148.566 309.697 159.398 309.261 167.227 309.238Z"/><path d="M751.43 411.169C763.381 410.651 777.361 411.276 789.462 411.043C794.883 410.939 813.374 410.735 817.852 411.772C819.08 415.339 818.506 451.639 818.509 458.513L818.546 594.266C818.498 610.152 818.591 626.039 818.827 641.924C818.908 647.962 818.533 655.587 819.018 661.363L819.072 661.948C816.92 664.32 815.413 665.759 812.686 667.466C801.677 673.552 788.905 675.654 776.526 673.416C765.449 671.489 757.41 666.72 750.955 657.546C750.418 648.785 750.894 636.076 750.849 627.017L750.642 559.297L750.589 465.651C750.568 448.941 750.522 432.189 750.553 415.479C750.557 413.565 750.453 412.567 751.43 411.169Z"/><path d="M196.259 411.104C204.376 410.803 257.581 410.308 262.15 412.186C262.72 415.955 262.692 430.999 262.76 435.481C263.163 462.366 262.577 489.385 262.558 516.302L262.853 607.146C262.888 623.003 263.52 643.102 262.168 658.538C259.534 662.396 257.973 663.853 254.468 666.706C237.427 677.58 209.876 677.506 195.45 662.151C195.152 649.203 195.466 635.017 195.468 621.946L195.607 537.305C195.723 496.711 195.517 456.073 195.504 415.479C195.504 413.627 195.363 412.508 196.259 411.104Z"/><path d="M473.986 411.153C480.734 410.771 490.095 411.036 497.033 411.067L538.946 411.254L539.294 411.82C540.323 413.407 539.537 424.442 539.474 426.968L539.265 592.345L539.411 637.107C539.475 644.03 539.741 651.236 539.683 658.157C539.661 660.791 537.31 663.127 536.134 665.456C535.446 666.247 535.989 665.686 535.074 666.426C520.183 678.471 485.408 676.648 473.972 660.615L473.986 411.153Z"/><path d="M718.033 121.072C726.47 120.694 736.466 120.916 745.013 120.916L794.387 121.008L831.314 120.948C838.323 120.921 845.444 120.646 852.438 121.03C854.748 121.157 856.833 121.429 858.926 122.491C861.809 123.954 863.642 126.154 864.601 129.227C866.148 134.187 866.392 177.028 865.774 183.604C865.576 185.717 865.081 187.864 864.049 189.734C862.133 193.204 859.028 194.719 855.398 195.882C849.007 196.194 840.645 195.927 834.138 195.916L794.322 195.887C768.908 195.879 740.436 197.032 715.015 194.759C701.642 193.563 708.679 143.586 707.3 133.63C706.473 127.659 712.162 122.627 718.033 121.072Z"/><path d="M613.811 411.231C622.932 410.851 673.683 410.282 679.18 411.98C680.145 416.16 679.855 426.955 679.859 431.808L679.861 464.157L680.28 575.846C680.287 577.688 679.934 578.036 678.785 579.125C677.035 579.603 675.663 578.845 673.873 578.228C649.107 571.608 636.56 572.85 612.532 580.594C611.949 539.29 612.464 496.757 612.479 455.355L612.476 429.242C612.459 425.529 611.954 414.915 612.797 411.719L613.811 411.231Z"/><path d="M333.801 411.153C341.623 410.792 351.324 411.033 359.265 411.034C373.208 410.939 387.151 411.098 401.088 411.512C401.632 436.607 401.047 464.325 400.958 489.533L401.025 579.836C399.49 579.447 398.021 578.908 396.524 578.394C376.874 572.844 352.793 571.245 334.066 580.682C333.588 568.982 333.911 555.132 333.905 543.225L333.883 475.013L333.849 431.54C333.837 425.951 333.363 416.267 333.801 411.153Z"/><path d="M752.868 221.246C763.475 220.755 776.189 221.189 786.968 221.041C794.534 220.936 808.436 220.681 815.427 221.398C815.924 227.502 816.081 277.317 815.123 281.511L814.086 282.055L751.062 281.973L750.902 244.643C750.851 239.443 750.449 226.16 751.155 221.715L752.868 221.246Z"/><path d="M539.474 426.968L540.925 424.789L540.867 588.813L540.846 634.124C540.901 642.161 541.273 650.231 540.948 658.254C540.81 661.664 538.586 663.418 536.134 665.456C537.31 663.127 539.661 660.791 539.683 658.157C539.741 651.236 539.475 644.03 539.411 637.107L539.265 592.345L539.474 426.968Z"/><path d="M538.946 411.254C539.277 411.322 540.751 411.561 540.805 411.84C541.257 414.185 541.079 422.607 540.925 424.789L539.474 426.968C539.537 424.442 540.323 413.407 539.294 411.82L538.946 411.254Z"/></svg>